# xmcd CD database file
#
# Track frame offsets:
#	187
#	17722
#	35062
#	61342
#	69842
#	92532
#	119372
#	121875
#	136437
#	154367
#
# Disc length: 2300 seconds
#
# Revision: 0
# Processed by: cddbd v1.5PL3 Copyright (c) Steve Scherf et al.
# Submitted via: CDex 1.50Beta6
#
DISCID=8408fa0a
DTITLE=浜田麻里 - LUNATIC DOLL
DYEAR=1983
DGENRE=Hard Rock
TTITLE0=Noah
TTITLE1=Tokio Makin' Love
TTITLE2=Runaway From Yesterday
TTITLE3=Love Maker
TTITLE4=Black Hole
TTITLE5=All Night Party
TTITLE6=Mistress
TTITLE7=Spacer
TTITLE8=Lights
TTITLE9=Bottom Energy
EXTD=YEAR: 1983
EXTT0=
EXTT1=
EXTT2=
EXTT3=
EXTT4=
EXTT5=
EXTT6=
EXTT7=
EXTT8=
EXTT9=
PLAYORDER=
